<?xml version="1.0" encoding="utf-8"?>
<!-- Generator: Adobe Illustrator 16.0.0, SVG Export Plug-In . SVG Version: 6.00 Build 0)  -->
<!DOCTYPE svg PUBLIC "-//W3C//DTD SVG 1.1//EN" "http://www.w3.org/Graphics/SVG/1.1/DTD/svg11.dtd">
<svg version="1.1" id="레이어_1" xmlns="http://www.w3.org/2000/svg" xmlns:xlink="http://www.w3.org/1999/xlink" x="0px"
	 y="0px" viewBox="0 0 24 24" enable-background="new 0 0 24 24" xml:space="preserve">
<g>
	<polygon fill="#1428a0" points="10,14.026 13.959,12.003 10,10.005 	"/>
	<path fill="#1428a0" d="M12,0C5.373,0,0,5.373,0,12c0,6.628,5.373,12,12,12c6.628,0,12-5.372,12-12C24,5.373,18.628,0,12,0z
		 M19.205,15.796c-0.277,0.89-1.134,1.175-1.134,1.175c-0.924,0.274-4.961,0.29-6.054,0.289c-1.093,0.001-5.13-0.012-6.054-0.285
		c0,0-0.856-0.289-1.134-1.18c-0.295-0.981-0.35-2.365-0.35-3.811c0-1.445,0.054-2.821,0.35-3.803c0.278-0.89,1.134-1.17,1.134-1.17
		c0.923-0.274,4.961-0.288,6.054-0.287c1.093-0.001,5.13,0.013,6.054,0.287c0,0,0.856,0.28,1.134,1.17
		c0.296,0.982,0.35,2.358,0.35,3.803C19.555,13.43,19.501,14.813,19.205,15.796z"/>
</g>
</svg>
