<?xml version="1.0" encoding="utf-8"?>
<!-- Generator: Adobe Illustrator 16.0.0, SVG Export Plug-In . SVG Version: 6.00 Build 0)  -->
<!DOCTYPE svg PUBLIC "-//W3C//DTD SVG 1.1//EN" "http://www.w3.org/Graphics/SVG/1.1/DTD/svg11.dtd">
<svg version="1.1" id="레이어_1" xmlns="http://www.w3.org/2000/svg" xmlns:xlink="http://www.w3.org/1999/xlink" x="0px"
	 y="0px" viewBox="0 0 40 40" enable-background="new 0 0 40 40" xml:space="preserve">
<path fill="#363636" d="M20,0.167C9.046,0.167,0.167,9.046,0.167,20c0,10.954,8.88,19.834,19.833,19.834
	c10.954,0,19.834-8.88,19.834-19.834C39.834,9.046,30.954,0.167,20,0.167z M32.399,14.125c-0.031,0.516-1.32,2.634-1.785,3.241
	s-1.649,2.277-1.953,2.712c-0.304,0.437-0.307,0.852-0.307,0.852c0.025,0.104-0.091,0.284,0.801,0.891
	c0.891,0.607,2.516,2.517,2.516,2.517c0.383,0.442,0.729,0.501,0.729,1.329c0,1.503-1.553,1.334-1.553,1.334s-2.312,0-2.759,0
	c-0.445,0-0.633,0.101-0.728,0.031c-0.096-0.067-1.97-1.75-1.97-1.75c-1.18-1.287-2.102-1.207-2.102-1.207
	c-0.935-0.02-1.603,0.737-1.603,2.166c0,1.051-0.86,1.184-0.86,1.184c-0.585,0-2.143,0.227-4.442-0.975
	c-4.429-2.505-7.116-8.381-7.224-8.616c-0.107-0.236-1.101-2.706-1.484-3.643C7.292,13.253,8.327,13,8.327,13h3.295
	c0.895,0,2.687,3.769,3.126,4.52c0.339,0.581,1.123,2.383,1.718,2.383c0.855,0,0.534-2.898,0.534-2.898s0-1.105,0-1.984
	C17,14.141,16.591,15,16.591,15h-0.716c0.912-2,3.195-2,3.195-2h2.479c0.921,0,0.994,1.135,0.994,1.135s-0.073,3.228-0.057,4.399
	c0.035,1.016,0.568,1.528,0.826,1.528c0.259,0,0.465-0.009,0.892-0.805c1.192-2.949,3.225-5.773,3.225-5.773s0.201-0.454,1.041-0.38
	c2.939,0.211,3.68,0.663,3.68,0.663S32.417,13.82,32.399,14.125z"/>
</svg>
