<?xml version="1.0" encoding="utf-8"?>
<!-- Generator: Adobe Illustrator 16.0.3, SVG Export Plug-In . SVG Version: 6.00 Build 0)  -->
<!DOCTYPE svg PUBLIC "-//W3C//DTD SVG 1.1//EN" "http://www.w3.org/Graphics/SVG/1.1/DTD/svg11.dtd">
<svg version="1.1" id="Icon_1_" xmlns="http://www.w3.org/2000/svg" xmlns:xlink="http://www.w3.org/1999/xlink" x="0px" y="0px"
	 viewBox="0 0 35 41" enable-background="new 0 0 35 41" xml:space="preserve">
<g>
	<path d="M17,1.499c8.547,0,15.5,6.871,15.5,15.315c0,6.585-10.422,16.877-15.5,21.229C11.922,33.691,1.5,23.399,1.5,16.814
		C1.5,8.37,8.454,1.499,17,1.499 M16.989,22.713c4.135,0,7.5-3.364,7.5-7.5s-3.364-7.5-7.5-7.5c-4.136,0-7.5,3.364-7.5,7.5
		S12.853,22.713,16.989,22.713 M17-0.001c-9.388,0-17,7.529-17,16.815C0,26.103,17,40,17,40s17-13.897,17-23.186
		C34,7.528,26.389-0.001,17-0.001L17-0.001z M16.989,21.213c-3.314,0-6-2.688-6-6c0-3.313,2.687-6,6-6s6,2.687,6,6
		C22.988,18.525,20.303,21.213,16.989,21.213L16.989,21.213z"/>
</g>
</svg>
