<?xml version="1.0" encoding="utf-8"?>
<!-- Generator: Adobe Illustrator 16.0.0, SVG Export Plug-In . SVG Version: 6.00 Build 0)  -->
<!DOCTYPE svg PUBLIC "-//W3C//DTD SVG 1.1//EN" "http://www.w3.org/Graphics/SVG/1.1/DTD/svg11.dtd">
<svg version="1.1" id="레이어_1" xmlns="http://www.w3.org/2000/svg" xmlns:xlink="http://www.w3.org/1999/xlink" x="0px"
	 y="0px" viewBox="0 0 24 24" enable-background="new 0 0 24 24" xml:space="preserve">
<path fill="#363636" d="M12,0C5.373,0,0,5.373,0,12c0,6.628,5.373,12,12,12c6.628,0,12-5.372,12-12C24,5.373,18.628,0,12,0z M9,19H6
	v-9h3V19z M7.073,8.513c-0.833,0-1.508-0.675-1.508-1.508c0-0.833,0.675-1.508,1.508-1.508c0.833,0,1.507,0.675,1.507,1.508
	C8.581,7.837,7.906,8.513,7.073,8.513z M19,13.084V19h-3v-5.414c0,0,0.126-1.572-1.249-1.572c-0.988,0-1.751,0.661-1.751,1.24V19h-3
	v-9h3v0.992c0-0.368,0.918-1.136,2.484-1.136c0,0,1.837-0.136,2.715,0.959C18.913,11.707,19,12.594,19,13.084z"/>
</svg>
