<?xml version="1.0" encoding="utf-8"?>
<!-- Generator: Adobe Illustrator 16.0.0, SVG Export Plug-In . SVG Version: 6.00 Build 0)  -->
<!DOCTYPE svg PUBLIC "-//W3C//DTD SVG 1.1//EN" "http://www.w3.org/Graphics/SVG/1.1/DTD/svg11.dtd">
<svg version="1.1" id="레이어_1" xmlns="http://www.w3.org/2000/svg" xmlns:xlink="http://www.w3.org/1999/xlink" x="0px"
	 y="0px" width="24px" height="24px" viewBox="0 0 24 24" enable-background="new 0 0 24 24" xml:space="preserve">
<path fill="#363636" d="M12,0C5.373,0,0,5.373,0,12c0,6.627,5.373,12,12,12c6.628,0,12-5.372,12-12C24,5.373,18.628,0,12,0z
	 M18.851,7L12,13.168L5.15,7H18.851z M5,7.614L9.871,12L5,16.385V7.614z M5.149,17l5.547-4.682l0.987,1.046
	c0.09,0.081,0.204,0.198,0.316,0.197c0.113,0.001,0.226,0.001,0.316-0.081l0.987-1.182L18.851,17H5.149z M19,16.385L14.129,12
	L19,7.614V16.385z"/>
</svg>
