<?xml version="1.0" encoding="utf-8"?>
<!-- Generator: Adobe Illustrator 16.0.0, SVG Export Plug-In . SVG Version: 6.00 Build 0)  -->
<!DOCTYPE svg PUBLIC "-//W3C//DTD SVG 1.1//EN" "http://www.w3.org/Graphics/SVG/1.1/DTD/svg11.dtd">
<svg version="1.1" id="레이어_1" xmlns="http://www.w3.org/2000/svg" xmlns:xlink="http://www.w3.org/1999/xlink" x="0px"
	 y="0px" viewBox="0 0 24 24" enable-background="new 0 0 24 24" xml:space="preserve">
<g>
	<path fill="#1428a0" d="M10.367,14.008c0,0-2.258-0.313-3.586,0.992c-0.859,0.859-0.789,1.383-0.789,1.602
		c0,0,0.063,1.852,3.32,1.898s3.625-0.859,3.695-1.969S12.203,14.117,10.367,14.008z"/>
	<path fill="#1428a0" d="M11.472,7.945c-0.513-3.077-2.573-2.944-2.573-2.944S6.743,5.085,7.063,8.063
		c0.143,1.424,1.458,2.833,2.901,2.945C9.964,11.007,11.849,10.952,11.472,7.945z"/>
	<path fill="#1428a0" d="M12,0C5.373,0,0,5.373,0,12c0,6.628,5.373,12,12,12c6.628,0,12-5.372,12-12C24,5.373,18.628,0,12,0z
		 M9.586,19.512c-5.078-0.195-5.078-3.027-5.078-3.027c0.141-3.328,5.523-2.969,5.523-2.969c-0.492-0.391-0.769-0.938-0.781-1.344
		c-0.015-0.478,0.255-0.894,0.255-0.894l-0.428,0.028c-0.516,0-1.5,0.006-2.476-0.811C5.614,9.67,5.5,8.273,5.5,8.055
		S5.451,6.791,6.547,5.703C7.665,4.594,9.375,4.48,9.375,4.48l4.802,0.018L13.042,5h-1.558C12.696,6,13,7.157,13,8.04
		s-0.641,1.756-1.375,2.35s-0.695,1.313-0.695,1.313c0.039,1.039,1.336,1.306,2.398,2.29c0.805,0.742,1.172,1.294,1.172,2.053
		C14.359,19.475,9.586,19.512,9.586,19.512z M20,12h-3v2h-1v-2h-2v-1h2V9h1v2h3V12z"/>
</g>
</svg>
