<?xml version="1.0" encoding="utf-8"?>
<!-- Generator: Adobe Illustrator 16.0.0, SVG Export Plug-In . SVG Version: 6.00 Build 0)  -->
<!DOCTYPE svg PUBLIC "-//W3C//DTD SVG 1.1//EN" "http://www.w3.org/Graphics/SVG/1.1/DTD/svg11.dtd">
<svg version="1.1" id="레이어_1" xmlns="http://www.w3.org/2000/svg" xmlns:xlink="http://www.w3.org/1999/xlink" x="0px"
	 y="0px" viewBox="0 0 40 40" enable-background="new 0 0 40 40" xml:space="preserve">
<path fill="#363636" d="M34.978,0H5.022C2.249,0,0,2.249,0,5.022v29.955C0,37.751,2.249,40,5.022,40h29.955
	C37.751,40,40,37.751,40,34.978V5.022C40,2.249,37.751,0,34.978,0z M12,35H6V15h6V35z M9.322,12.828
	c-1.914,0-3.458-1.548-3.458-3.456c0-1.907,1.543-3.456,3.458-3.456c1.907,0,3.454,1.548,3.454,3.456
	C12.776,11.279,11.229,12.828,9.322,12.828z M35,35h-6v-9.704c0-2.224-0.201-5.082-3.262-5.082c-3.1,0-3.738,2.423-3.738,4.924V35
	h-6V15h6v3h-0.164c0.796-1,2.928-3.063,5.826-3.063c6.033,0,7.338,4.005,7.338,9.169V35z"/>
</svg>
