<?xml version="1.0" encoding="utf-8"?>
<!-- Generator: Adobe Illustrator 16.0.0, SVG Export Plug-In . SVG Version: 6.00 Build 0)  -->
<!DOCTYPE svg PUBLIC "-//W3C//DTD SVG 1.1//EN" "http://www.w3.org/Graphics/SVG/1.1/DTD/svg11.dtd">
<svg version="1.1" id="레이어_1" xmlns="http://www.w3.org/2000/svg" xmlns:xlink="http://www.w3.org/1999/xlink" x="0px"
	 y="0px" viewBox="0 0 40 40" enable-background="new 0 0 40 40" xml:space="preserve">
<g>
	<path fill="#363636" d="M22,15.65C22,14.91,20.613,15,19.965,15h-3.915C15.403,15,15,14.91,15,15.65v0.163
		C15,16.554,15.403,17,16.051,17h3.915C20.613,17,22,16.554,22,15.813V15.65z"/>
	<path fill="#363636" d="M25,23.617C25,22.877,24.597,22,23.948,22h-7.897C15.403,22,15,22.877,15,23.617v0.162
		C15,24.521,15.403,25,16.051,25h7.897C24.597,25,25,24.521,25,23.779V23.617z"/>
	<path fill="#363636" d="M20,0.083C9,0.083,0.083,9,0.083,20C0.083,31,9,39.916,20,39.916C31,39.916,39.916,31,39.916,20
		C39.916,9,31,0.083,20,0.083z M30,22.042C30,29.769,23.739,30,23.739,30h-6.272C10.183,30,10,23.527,10,23.527s0-0.08,0-6.767
		C10,10.1,15.959,10,15.959,10h4.149C25.847,10,27,15.021,27,15.021v0.595C27,17.047,27.474,17,27.474,17h1.155
		C29.903,17,30,18.236,30,18.236V22.042z"/>
</g>
</svg>
