<?xml version="1.0" encoding="utf-8"?>
<!-- Generator: Adobe Illustrator 16.0.0, SVG Export Plug-In . SVG Version: 6.00 Build 0)  -->
<!DOCTYPE svg PUBLIC "-//W3C//DTD SVG 1.1//EN" "http://www.w3.org/Graphics/SVG/1.1/DTD/svg11.dtd">
<svg version="1.1" xmlns="http://www.w3.org/2000/svg" xmlns:xlink="http://www.w3.org/1999/xlink" viewBox="0 0 24 24">
<g>
	<path fill="#363636" d="M16.563,12.082c0,2.485-2.015,4.426-4.5,4.426s-4.5-1.913-4.5-4.398c0-0.422,0.06-1.109,0.168-1.109H7v5.5
		C7,17.018,6.982,17,7.5,17h9.125C17.143,17,17,17.018,17,16.5V11h-0.605C16.503,11,16.563,11.659,16.563,12.082z"/>
	<circle fill="#363636" cx="12.063" cy="11.938" r="2.75"/>
	<path fill="#363636" d="M12,0C5.373,0,0,5.373,0,12c0,6.628,5.373,12,12,12c6.628,0,12-5.372,12-12C24,5.373,18.628,0,12,0z M19,17
		c0,0.956-0.986,2-2,2H7c-1.014,0-2-1.044-2-2V7c0-0.956,0.986-2,2-2h10c1.014,0,2,1.044,2,2V17z"/>
	<path fill="#363636" d="M17,7.469C17,7.141,16.828,7,16.453,7h-0.969C15.109,7,15,7.203,15,7.563v0.962C15,8.844,15.189,9,15.426,9
		l1.058,0.038C16.892,9.038,17,8.74,17,8.525V7.469z"/>
</g>
</svg>
