<?xml version="1.0" encoding="utf-8"?>
<!-- Generator: Adobe Illustrator 16.0.0, SVG Export Plug-In . SVG Version: 6.00 Build 0)  -->
<!DOCTYPE svg PUBLIC "-//W3C//DTD SVG 1.1//EN" "http://www.w3.org/Graphics/SVG/1.1/DTD/svg11.dtd">
<svg version="1.1" id="레이어_1" xmlns="http://www.w3.org/2000/svg" xmlns:xlink="http://www.w3.org/1999/xlink" x="0px"
	 y="0px" width="24px" height="24px" viewBox="0 0 24 24" enable-background="new 0 0 24 24" xml:space="preserve">
<path fill="#363636" d="M24,21c0,1.657-1.343,3-3,3H3c-1.657,0-3-1.343-3-3V3c0-1.657,1.343-3,3-3h18c1.657,0,3,1.343,3,3V21z"/>
<g>
	<g>
		<path fill="#FFFFFF" d="M3.557,8.998H7.12v11.454H3.557V8.998z M5.339,3.305c1.139,0,2.063,0.925,2.063,2.064
			c0,1.14-0.924,2.064-2.063,2.064c-1.144,0-2.065-0.925-2.065-2.064C3.274,4.229,4.196,3.305,5.339,3.305"/>
		<path fill="#FFFFFF" d="M9.353,8.998h3.412v1.566h0.049c0.475-0.9,1.636-1.85,3.368-1.85c3.604,0,4.271,2.372,4.271,5.456v6.281
			h-3.56v-5.57c0-1.328-0.022-3.036-1.85-3.036c-1.852,0-2.135,1.448-2.135,2.942v5.664H9.353V8.998z"/>
	</g>
</g>
</svg>
