<?xml version="1.0" encoding="utf-8"?>
<!-- Generator: Adobe Illustrator 16.0.3, SVG Export Plug-In . SVG Version: 6.00 Build 0)  -->
<!DOCTYPE svg PUBLIC "-//W3C//DTD SVG 1.1//EN" "http://www.w3.org/Graphics/SVG/1.1/DTD/svg11.dtd">
<svg version="1.1" xmlns="http://www.w3.org/2000/svg" xmlns:xlink="http://www.w3.org/1999/xlink" viewBox="0 0 25 25">
<g>
	<path d="M12,1.5c5.79,0,10.5,4.71,10.5,10.5c0,5.79-4.71,10.5-10.5,10.5C6.21,22.5,1.5,17.79,1.5,12C1.5,6.21,6.21,1.5,12,1.5
		 M12,0C5.373,0,0,5.373,0,12s5.373,12,12,12s12-5.373,12-12S18.627,0,12,0L12,0z"/>
</g>
<g>
	<g>
		<polygon points="17.109,10.933 12.926,15.115 12.926,5.885 10.865,5.885 10.865,14.906 6.891,10.933 5.431,12.392 12,18.962
			18.569,12.392 		"/>
	</g>
</g>
</svg>
