<?xml version="1.0" encoding="utf-8"?>
<!-- Generator: Adobe Illustrator 16.0.0, SVG Export Plug-In . SVG Version: 6.00 Build 0)  -->
<!DOCTYPE svg PUBLIC "-//W3C//DTD SVG 1.1//EN" "http://www.w3.org/Graphics/SVG/1.1/DTD/svg11.dtd">
<svg version="1.1" id="login" xmlns="http://www.w3.org/2000/svg" xmlns:xlink="http://www.w3.org/1999/xlink" viewBox="0 0 16 18">
<path fill="#1428a0" d="M11.695,8.664c0.883-0.919,1.426-2.168,1.426-3.543C13.121,2.292,10.829,0,8,0
	C5.171,0,2.879,2.292,2.879,5.121c0,1.375,0.542,2.624,1.425,3.543c-2.401,1.31-4.031,3.859-4.031,6.789v2.515h15.453v-2.515
	C15.727,12.523,14.097,9.974,11.695,8.664 M8,2.515c1.439,0,2.605,1.167,2.605,2.606c0,1.438-1.166,2.606-2.605,2.606
	S5.394,6.558,5.394,5.121C5.394,3.681,6.561,2.515,8,2.515 M2.788,15.453c0-2.879,2.334-5.212,5.212-5.212
	c2.877,0,5.212,2.333,5.212,5.212H2.788z"/>
</svg>
