<?xml version="1.0" encoding="utf-8"?>
<!-- Generator: Adobe Illustrator 16.0.0, SVG Export Plug-In . SVG Version: 6.00 Build 0)  -->
<!DOCTYPE svg PUBLIC "-//W3C//DTD SVG 1.1//EN" "http://www.w3.org/Graphics/SVG/1.1/DTD/svg11.dtd">
<svg version="1.1" id="레이어_1" xmlns="http://www.w3.org/2000/svg" xmlns:xlink="http://www.w3.org/1999/xlink" x="0px"
	 y="0px" width="16px" height="16px" viewBox="0 0 16 16" enable-background="new 0 0 16 16" xml:space="preserve">
<path fill="#1428a0" d="M14.044,12C15.124,12,16,11.122,16,10.036V1.964C16,0.879,15.124,0,14.044,0H1.956C0.875,0,0,0.879,0,1.964
	v8.072C0,11.122,0.875,12,1.956,12H6v2H3c-0.552,0-1,0.447-1,1s0.448,1,1,1h10c0.553,0,1-0.447,1-1s-0.447-1-1-1h-3v-2H14.044z
	 M2,10V1.967l12-0.014V10H2z"/>
<g>
	<polygon fill="#1428a0" points="8.452,7 8.659,3 6.932,3 7.16,7 	"/>
	<path fill="#1428a0" d="M8.368,7.785c-0.139-0.133-0.328-0.2-0.563-0.2c-0.239,0-0.43,0.066-0.566,0.196
		C7.102,7.912,7.032,8.096,7.032,8.326c0,0.225,0.071,0.407,0.211,0.542c0.14,0.133,0.329,0.201,0.563,0.201
		c0.24,0,0.43-0.068,0.567-0.202C8.51,8.732,8.579,8.548,8.579,8.318C8.579,8.098,8.508,7.919,8.368,7.785z"/>
</g>
</svg>
