<?xml version="1.0" encoding="utf-8"?>
<!-- Generator: Adobe Illustrator 16.0.0, SVG Export Plug-In . SVG Version: 6.00 Build 0)  -->
<!DOCTYPE svg PUBLIC "-//W3C//DTD SVG 1.1//EN" "http://www.w3.org/Graphics/SVG/1.1/DTD/svg11.dtd">
<svg version="1.1" id="레이어_1" xmlns="http://www.w3.org/2000/svg" xmlns:xlink="http://www.w3.org/1999/xlink" x="0px"
	 y="0px" viewBox="0 0 40 40" enable-background="new 0 0 40 40" xml:space="preserve">
<path fill="#363636" d="M35.039,0.167H5.13c-2.752,0-4.984,2.233-4.984,4.984v29.911c0,2.754,2.232,4.979,4.984,4.979h29.909
	c2.756,0,4.981-2.226,4.981-4.979V5.151C40.021,2.399,37.795,0.167,35.039,0.167z M16.059,27.009c-3.849,0-6.967-3.118-6.967-6.965
	c0-3.847,3.119-6.965,6.967-6.965c1.795,0,3.43,0.678,4.665,1.793l-1.799,1.859c-0.77-0.666-1.769-1.071-2.866-1.071
	c-2.421,0-4.384,1.963-4.384,4.384s1.963,4.385,4.384,4.385c1.885,0,3.488-1.195,4.108-2.866h-4.108v-2.404l4.293-0.001h2.613
	c0.039,0.292,0.059,0.587,0.059,0.887C23.023,23.891,19.906,27.009,16.059,27.009z M30.772,21.035h-1.846v1.967H26.96v-1.967h-1.879
	v-1.877h1.879v-1.952h1.967v1.952h1.846V21.035z"/>
</svg>
