<?xml version="1.0" encoding="utf-8"?>
<!-- Generator: Adobe Illustrator 16.0.3, SVG Export Plug-In . SVG Version: 6.00 Build 0)  -->
<!DOCTYPE svg PUBLIC "-//W3C//DTD SVG 1.1//EN" "http://www.w3.org/Graphics/SVG/1.1/DTD/svg11.dtd">
<svg version="1.1" xmlns="http://www.w3.org/2000/svg" xmlns:xlink="http://www.w3.org/1999/xlink" viewBox="0 0 51 51" fill="#363636">
<path d="M25,0C11.195,0,0,11.194,0,25c0,13.806,11.195,25,25,25c13.806,0,25-11.194,25-25C50,11.194,38.806,0,25,0z M26.493,39.699
	c-0.496,0.509-1.194,0.763-2.085,0.763c-0.867,0-1.542-0.254-2.026-0.763c-0.485-0.511-0.727-1.174-0.727-1.987
	c0-0.816,0.252-1.478,0.764-1.988c0.509-0.513,1.17-0.767,1.989-0.767c0.891,0,1.589,0.254,2.085,0.767
	c0.494,0.511,0.745,1.172,0.745,1.988C27.238,38.525,26.987,39.188,26.493,39.699z M32.857,19.556
	c-0.354,0.755-0.81,1.4-1.357,1.931c-0.549,0.533-1.141,1.015-1.778,1.451c-0.637,0.431-1.23,0.934-1.777,1.507
	c-0.548,0.57-0.999,1.258-1.359,2.063c-0.356,0.802-0.535,1.854-0.535,3.141v0.371h-3.324v-0.371c0-1.527,0.173-2.791,0.517-3.79
	c0.342-0.999,0.767-1.839,1.281-2.515c0.509-0.682,1.063-1.245,1.664-1.701c0.596-0.456,1.153-0.91,1.662-1.353
	c0.513-0.445,0.936-0.942,1.281-1.497c0.342-0.554,0.515-1.25,0.515-2.09c0-1.157-0.445-2.107-1.339-2.848
	c-0.891-0.739-2.024-1.109-3.4-1.109c-1.35,0-2.427,0.336-3.229,1.001c-0.804,0.667-1.423,1.522-1.857,2.57l-3.363-1.239
	c0.585-1.599,1.594-2.923,3.02-3.969c1.426-1.05,3.25-1.575,5.467-1.575c1.224,0,2.353,0.173,3.386,0.521
	c1.029,0.346,1.921,0.83,2.672,1.45c0.755,0.619,1.341,1.372,1.764,2.25c0.419,0.877,0.629,1.851,0.629,2.917
	C33.393,17.836,33.215,18.797,32.857,19.556z"/>
</svg>
