<?xml version="1.0" encoding="utf-8"?>
<!-- Generator: Adobe Illustrator 16.0.0, SVG Export Plug-In . SVG Version: 6.00 Build 0)  -->
<!DOCTYPE svg PUBLIC "-//W3C//DTD SVG 1.1//EN" "http://www.w3.org/Graphics/SVG/1.1/DTD/svg11.dtd">
<svg version="1.1" id="cart-empty" xmlns="http://www.w3.org/2000/svg" xmlns:xlink="http://www.w3.org/1999/xlink" viewBox="0 0 22 18">
<g>
	<path d="M20.53,16.194c0,0.993-0.805,1.798-1.798,1.798s-1.798-0.805-1.798-1.798s0.805-1.799,1.798-1.799
		S20.53,15.201,20.53,16.194"/>
	<path d="M7.583,16.194c0,0.993-0.805,1.798-1.798,1.798s-1.798-0.805-1.798-1.798s0.805-1.799,1.798-1.799
		S7.583,15.201,7.583,16.194"/>
	<path d="M21.25,2.527L21.25,2.527h-2.518H5.785V2.525V2.5c0-1.376-1.116-2.492-2.492-2.492H3.268H0.75v2.518h2.518
		v0.002v2.518v5.033c0,1.391,1.127,2.518,2.518,2.518l12.947,0.002c1.391,0,2.518-1.128,2.518-2.518V5.045V2.527z M18.732,7.496
		v2.584L5.785,10.078V7.494V5.045h12.947V7.496z"/>
</g>
</svg>
