<?xml version="1.0" encoding="utf-8"?>
<!-- Generator: Adobe Illustrator 16.0.3, SVG Export Plug-In . SVG Version: 6.00 Build 0)  -->
<!DOCTYPE svg PUBLIC "-//W3C//DTD SVG 1.1//EN" "http://www.w3.org/Graphics/SVG/1.1/DTD/svg11.dtd">
<svg version="1.1" id="레이어_1" xmlns="http://www.w3.org/2000/svg" xmlns:xlink="http://www.w3.org/1999/xlink" x="0px"
	 y="0px" viewBox="0 0 51 30" enable-background="new 0 0 51 30" xml:space="preserve">
<polygon fill="#040000" points="23.684,26.363 21.053,26.363 21.053,23.727 18.42,23.727 18.42,21.092 15.788,21.092 15.788,18.455 
	13.157,18.455 13.157,15.818 10.525,15.818 10.525,13.183 7.894,13.183 7.894,10.546 5.261,10.546 5.261,7.909 2.629,7.909 
	2.629,5.272 0,5.272 0,2.637 2.629,2.637 2.629,0.003 5.261,0.003 5.261,2.637 7.895,2.637 7.895,5.272 10.526,5.272 10.525,7.909 
	13.158,7.909 13.158,10.546 15.79,10.546 15.79,13.183 18.421,13.183 18.42,15.818 21.053,15.818 21.053,18.455 23.684,18.455 
	23.684,21.088 26.315,21.088 26.315,18.455 26.315,18.452 28.947,18.452 28.947,15.815 31.579,15.815 31.579,13.18 34.211,13.18 
	34.211,10.543 36.842,10.543 36.842,7.907 39.477,7.907 39.477,5.271 42.107,5.271 42.107,2.634 44.739,2.634 44.739,0 47.371,0 
	47.371,2.634 50,2.634 50,5.271 47.371,5.271 47.371,7.907 44.739,7.907 44.739,10.543 42.107,10.543 42.107,13.18 39.477,13.18 
	39.477,15.815 36.842,15.815 36.842,18.452 34.211,18.452 34.211,21.088 31.579,21.088 31.579,23.725 28.947,23.725 28.947,23.727 
	28.947,26.363 26.315,26.363 26.315,29 23.684,29 "/>
</svg>
