<?xml version="1.0" encoding="utf-8"?>
<!-- Generator: Adobe Illustrator 16.0.0, SVG Export Plug-In . SVG Version: 6.00 Build 0)  -->
<!DOCTYPE svg PUBLIC "-//W3C//DTD SVG 1.1//EN" "http://www.w3.org/Graphics/SVG/1.1/DTD/svg11.dtd">
<svg version="1.1" xmlns="http://www.w3.org/2000/svg" xmlns:xlink="http://www.w3.org/1999/xlink" viewBox="0 0 16 18">
<path fill="#1428a0" d="M11.388,8.68c0.883-0.919,1.426-2.168,1.426-3.543c0-2.829-2.291-5.121-5.12-5.121
	c-2.829,0-5.121,2.292-5.121,5.121c0,1.375,0.542,2.624,1.425,3.543c-2.401,1.311-4.031,3.86-4.031,6.79v2.514h15.452V15.47
	C15.419,12.54,13.79,9.991,11.388,8.68 M7.693,2.531c1.438,0,2.604,1.167,2.604,2.606c0,1.438-1.166,2.606-2.604,2.606
	c-1.439,0-2.606-1.168-2.606-2.606C5.087,3.697,6.254,2.531,7.693,2.531 M2.481,15.47c0-2.879,2.334-5.212,5.212-5.212
	c2.876,0,5.212,2.333,5.212,5.212H2.481z"/>
<polygon fill="#1428a0" points="15.983,7.898 14.436,6.35 7.863,12.923 5.953,11.013 4.509,12.456 7.234,15.182 7.236,15.18 
	7.971,15.91 "/>
</svg>
