<?xml version="1.0" encoding="utf-8"?>
<!-- Generator: Adobe Illustrator 16.0.0, SVG Export Plug-In . SVG Version: 6.00 Build 0)  -->
<!DOCTYPE svg PUBLIC "-//W3C//DTD SVG 1.1//EN" "http://www.w3.org/Graphics/SVG/1.1/DTD/svg11.dtd">
<svg version="1.1" id="레이어_1" xmlns="http://www.w3.org/2000/svg" xmlns:xlink="http://www.w3.org/1999/xlink" x="0px"
	 y="0px" viewBox="0 0 40 40" enable-background="new 0 0 40 40" xml:space="preserve">
<path fill="#363636" d="M19.943,0.088C9.085,0.088,0.27,8.76,0,19.554v1.006C0.265,31.186,8.815,39.734,19.44,40h1.006
	c10.795-0.27,19.466-9.084,19.466-19.943C39.912,9.028,30.973,0.088,19.943,0.088z M31.541,12L20.123,22.279L8.706,12H31.541z
	 M8,13.286l8.117,7.309L8,27.903V13.286z M8.705,28l8.897-7.044l1.628,1.71c0.15,0.137,0.502,0.625,0.893,0.6
	c0.338-0.023,0.553-0.063,0.703-0.2l1.89-2.107L31.541,28H8.705z M32,27.903l-8.119-7.309L32,13.286V27.903z"/>
</svg>
