<svg xmlns="http://www.w3.org/2000/svg" xmlns:xlink="http://www.w3.org/1999/xlink"><symbol id="facebook" viewBox="0 0 36 36"><circle cx="18" cy="18" r="18" class="circle"/><path fill="#FFF" d="M19.8 29.6V18.9h3.6l.5-4.2h-4.1V12c0-1.2.3-2 2.1-2h2.2V6.3c-.4-.1-1.7-.2-3.2-.2-3.2 0-5.4 1.9-5.4 5.5v3.1h-3.6v4.2h3.6v10.7h4.3z" class="logo"/></symbol><symbol id="twitter" viewBox="0 0 36 36"><circle cx="18" cy="18" r="18" class="circle"/><path fill="#FFF" d="M27.9 11.9c-.7.3-1.5.5-2.3.6.8-.5 1.5-1.3 1.8-2.2-.8.5-1.7.8-2.6 1-.7-.8-1.8-1.3-3-1.3-2.2 0-4.1 1.8-4.1 4.1 0 .3 0 .6.1.9-3.4-.2-6.4-1.8-8.4-4.2-.3.6-.5 1.3-.5 2 0 1.4.7 2.7 1.8 3.4-.7 0-1.3-.2-1.8-.5v.1c0 2 1.4 3.6 3.3 4-.3.1-.7.1-1.1.1-.3 0-.5 0-.8-.1.5 1.6 2 2.8 3.8 2.8-1.4 1.1-3.1 1.7-5 1.7-.3 0-.7 0-1-.1C9.9 25.4 12 26 14.3 26c7.5 0 11.6-6.2 11.6-11.6v-.5c.7-.5 1.4-1.2 2-2z" class="logo"/></symbol><symbol id="instagram" viewBox="0 0 36 36"><circle cx="18" cy="18" r="18" class="circle"/><path fill="#FFF" d="M24.8 9H11.1C9.9 9 9 9.9 9 11.1v13.8c0 1.2 1 2.1 2.1 2.1h13.7c1.2 0 2.1-1 2.1-2.1V11.1C27 9.9 26 9 24.8 9zm-3.3 2.5c0-.3.2-.5.5-.5h2.4c.3 0 .5.2.5.5V14c0 .3-.2.5-.5.5H22c-.3 0-.5-.2-.5-.5v-2.5zM18 14.6c1.9 0 3.5 1.5 3.5 3.5 0 1.9-1.6 3.5-3.5 3.5s-3.5-1.5-3.5-3.5 1.6-3.5 3.5-3.5zm7 9.8c0 .3-.2.5-.5.5h-13c-.3 0-.5-.2-.5-.5v-7.8h1.7c-.1.5-.2.9-.2 1.4 0 3 2.5 5.5 5.5 5.5s5.5-2.5 5.5-5.5c0-.5-.1-1-.2-1.4H25v7.8z" class="logo"/></symbol><symbol id="youtube" viewBox="0 0 36 36"><circle cx="18" cy="18" r="18" class="circle"/><path fill="#FFF" d="M28.9 12.9c-.4-1.7-1.2-2.4-2.7-2.6-.9-.1-5-.3-8.2-.3-3.3 0-7.4.2-8.2.3-1.5.2-2.3.9-2.7 2.6-.1.6-.3 3.8-.3 5v.3c0 1.2.2 4.4.3 5 .4 1.7 1.2 2.4 2.7 2.6.9.1 5 .3 8.2.3 3.3 0 7.4-.2 8.2-.3 1.5-.2 2.3-.9 2.7-2.6.1-.6.3-3.8.3-5v-.3c.1-1.2-.1-4.4-.3-5zm-7.3 5l-6 3.3v-6.4l.3.1-.3-.2 6 3.2z" class="logo"/></symbol><symbol id="phone" viewBox="0 0 36 36"><path d="M14.4 8.4l-4.2-4.2L6 0 1.8 4.2c-2.3 2.3-2.3 6 0 8.3L23.3 34c2.3 2.3 6.1 2.3 8.4 0l4.2-4.2-4.2-4.2-4.2-4.2-4.2 4.2-13.1-13 4.2-4.2z"/></symbol><symbol id="mail" viewBox="0 0 36 36"><path d="M31 .1H5c-2.8 0-5 2.3-5 5v25.8c0 2.8 2.3 5 5 5h26c2.8 0 5-2.3 5-5V5.1c0-2.8-2.2-5-5-5zm-26 5h26l-6.5 6.5L18 18l-6.5-6.5L5 5.1zm26 25.8H5V12.4l5.8 5.8 7.1 7.1 7.1-7.1 5.9-5.8v18.5z"/></symbol><symbol id="chat" viewBox="0 0 36 36"><path d="M30.9.1H5.1c-2.8 0-5 2.2-5 5v15.7c0 2.8 2.2 5 5 5v10l5-5 5-5h15.8c2.8 0 5-2.2 5-5V5.1c.1-2.7-2.2-5-5-5zm0 20.7H5.1V5.1h25.8v15.7z"/></symbol><symbol id="flag" viewBox="0 0 7410 3900"><path fill="#b22234" d="M0 0h7410v3900H0z"/><path stroke="#fff" stroke-width="300" d="M0 450h7410m0 600H0m0 600h7410m0 600H0m0 600h7410m0 600H0"/><path fill="#3c3b6e" d="M0 0h2964v2100H0z"/><g fill="#fff"><g id="s18"><g id="s9"><g id="s5"><g id="s4"><path id="s" d="M247 90l70.534 217.082-184.66-134.164h228.253l-184.66 134.164z"/><use y="420" xlink:href="#s"/><use y="840" xlink:href="#s"/><use y="1260" xlink:href="#s"/></g><use y="1680" xlink:href="#s"/></g><use x="247" y="210" xlink:href="#s4"/></g><use x="494" xlink:href="#s9"/></g><use x="988" xlink:href="#s18"/><use x="1976" xlink:href="#s9"/><use x="2470" xlink:href="#s5"/></g></symbol><symbol id="angle-down" viewBox="0 0 100 100"><path d="M92.073 42.575L84.648 50 50 84.648 15.352 50l-7.425-7.425L.503 50 50 99.497 99.497 50l-7.424-7.425z"/></symbol><symbol id="angle-left" viewBox=".8 8.2 10.4 17.8"><path d="M11.2 9.7c0 .2-.1.3-.2.4l-7 7 7 7c.1.1.2.3.2.4 0 .2-.1.3-.2.4l-.9.9c-.1.2-.2.3-.4.3s-.3-.1-.4-.2L1 17.6c-.1-.1-.2-.3-.2-.4s.1-.3.2-.4l8.3-8.3c.1-.1.3-.2.4-.2.2 0 .3.1.4.2l.9.8c.1.1.2.3.2.4z"/></symbol><symbol id="angle-right" viewBox=".2 8.2 10.4 17.8"><path d="M10.6 17.1c0 .2-.1.3-.2.4l-8.3 8.3c-.1.2-.2.3-.4.3s-.3-.1-.4-.2L.4 25c-.1-.1-.2-.3-.2-.4 0-.2.1-.3.2-.4l7-7-7-7c-.1-.2-.2-.3-.2-.5s.1-.3.2-.4l.9-.9c.1-.1.3-.2.4-.2s.3.1.4.2l8.3 8.3c.2.1.2.3.2.4z"/></symbol><symbol id="cart" viewBox="0 0 18.862 17.834"><circle cx="5.83" cy="15.964" r="1.87"/><circle cx="16.222" cy="15.964" r="1.87"/><path d="M5.638 2.534v-.548C5.638.83 4.728 0 3.37 0H0v2.534h3.12v7.4c0 1.358 1.102 2.458 2.46 2.458h10.823c1.358 0 2.458-1.1 2.458-2.458v-7.4H5.64zm10.706 7.34H5.638V5.037h10.705v4.84z"/><rect width="100%" height="100%" fill="transparent" class="btn"/></symbol><symbol id="cart-open" viewBox="0 0 100 100"><circle cx="28" cy="90" r="10"/><circle cx="86" cy="90" r="10"/><path d="M86 14v42H28V13.86C28 6.205 21.794 0 14.14 0H0v14h14v42c0 7.732 6.268 14 14 14h58c7.732 0 14-6.268 14-14V14H86z"/></symbol><symbol id="logo" viewBox="23.9 37.5 32.1 4.9"><path d="M50.5 41.2l-.1-3.5h1.1v4.5h-1.6l-1.1-3.7h-.1l.1 3.7h-1.1v-4.5h1.7l1 3.5zm-20.7-3.1l-.6 4.1H28l.8-4.5h2.1l.8 4.5h-1.2l-.6-4.1zm5.4 3.1l.5-3.5h1.9l.1 4.5h-1.1l-.1-4.1-.7 4.1h-1.2l-.8-4.1v4.1h-1.2l.1-4.5h1.9l.6 3.5zM26 41v.3c0 .2-.1.3-.5.3-.3 0-.5-.2-.5-.4v-.5h-1.2v.3c0 1 .8 1.3 1.7 1.3.8 0 1.5-.3 1.6-1v-.8c-.2-1-1.9-1.2-2.1-1.8v-.2c0-.1.1-.3.4-.3s.4.2.4.4v.3h1.1v-.3c0-1-.9-1.1-1.5-1.1-.8 0-1.5.3-1.6 1v.6c.4 1 2 1.2 2.2 1.9zm14.9-.1v.3c0 .1-.1.3-.4.3-.3 0-.5-.2-.5-.4v-.4h-1.2v.3c0 1 .8 1.3 1.7 1.3.8 0 1.5-.3 1.6-1v-.8c-.2-1-1.9-1.2-2-1.8v-.2c0-.2.1-.3.4-.3.3 0 .4.2.4.4v.3H42v-.3c0-1-.9-1.1-1.5-1.1-.8 0-1.5.3-1.6 1v.6c.2 1 1.8 1.2 2 1.8zm3.9.6c.3 0 .4-.2.4-.3v-3.6h1.2v3.6c-.1.8-.8 1.1-1.6 1.1s-1.5-.3-1.6-1.1v-3.6h1.2v3.6c0 .1.1.3.4.3zm9.5 0c.3 0 .5-.2.5-.3v-.9h-.5v-.7H56v1.5c-.1.8-.8 1.1-1.6 1.1s-1.5-.3-1.6-1.1v-2.4c.1-.9.8-1.1 1.6-1.1s1.5.3 1.6 1.1v.5h-1.2v-.5c0-.1-.1-.3-.5-.3-.3 0-.4.2-.5.3v2.5c.1.1.2.3.5.3z"/><rect width="100%" height="100%" fill="transparent" class="btn"/></symbol><symbol id="new-window" viewBox="0 0 1069.4 1080"><path d="M631.4 0v139.1h224.8L310.4 674.2l85.6 96.3 535.1-545.8v214h139.1V0z"/><path d="M0 1080.9V0h492.3v139.1H139.1v802.7h792V588.6h139.1v492.3"/><rect width="100%" height="100%" fill="transparent" class="btn"/></symbol><symbol id="search" viewBox="0 0 16.982 17.946"><path d="M13.475 13.392A7.844 7.844 0 0 0 15.74 7.87a7.87 7.87 0 1 0-7.87 7.87c1.28 0 2.487-.313 3.556-.856l2.358 3.06h3.198l-3.507-4.552zm-5.605-.03a5.492 5.492 0 1 1 0-10.984 5.492 5.492 0 0 1 0 10.985z"/><rect width="100%" height="100%" fill="transparent" class="btn"/></symbol><symbol id="sign-in" viewBox="0 0 15.741 17.918"><path d="M15.738 15.307a7.87 7.87 0 0 0-4.115-6.853c.81-.9 1.32-2.078 1.32-3.384a5.072 5.072 0 0 0-10.143 0c0 1.307.508 2.486 1.32 3.385a7.868 7.868 0 0 0-4.116 6.853H0v2.62h3.11a.02.02 0 0 0-.004-.01h9.57a.02.02 0 0 1-.005.01h3.07v-2.62zM7.87 2.517a2.553 2.553 0 1 1 0 5.107 2.553 2.553 0 0 1 0-5.106zM2.453 15.4c0-.025-.005-.05-.005-.075a5.443 5.443 0 0 1 10.884 0c0 .026-.004.05-.005.075H2.453z"/><rect width="100%" height="100%" fill="transparent" class="btn"/></symbol><symbol id="x" viewBox="0 0 100 100"><path d="M80.052 9.34l10.606 10.61-70.71 70.71L9.342 80.05z"/><path d="M90.66 80.052L80.05 90.658 9.34 19.948 19.95 9.342z"/><rect width="100%" height="100%" fill="transparent" class="btn"/></symbol></svg>