<?xml version="1.0" encoding="utf-8"?>
<!-- Generator: Adobe Illustrator 16.0.0, SVG Export Plug-In . SVG Version: 6.00 Build 0)  -->
<!DOCTYPE svg PUBLIC "-//W3C//DTD SVG 1.1//EN" "http://www.w3.org/Graphics/SVG/1.1/DTD/svg11.dtd">
<svg version="1.1" xmlns="http://www.w3.org/2000/svg" xmlns:xlink="http://www.w3.org/1999/xlink" viewBox="0 0 14 22">
<g>
	<polygon fill="#040000" points="12,10 12,9.999 12,8.001 10,8.001 10,6.001 8,6.001 8,4.002 5.999,4.002 5.999,4.002 5.999,2.002 
		3.998,2.002 1.998,2.002 1.998,4.002 1.998,6.001 3.998,6.001 3.998,4.002 3.999,4.002 3.999,6.001 3.999,6.001 3.999,8.001 
		5.999,8.001 5.999,6.001 5.999,6.001 6,6.001 6,8.001 5.999,8.001 5.999,10 7.999,10 7.999,8.001 8,8.001 8,8.001 8,9.999 8,10 
		8,11.999 10,11.999 12,11.999 12,12 14,12 14,10 	"/>
	<polygon fill="#040000" points="8,12 8,14 8,14 7.999,14 7.999,12 5.999,12 5.999,14 6,14 6,16 5.999,16 5.999,16 5.999,14 
		3.999,14 3.999,16 3.999,16 3.999,18 3.998,18 3.998,16 1.998,16 1.998,18 1.998,20 1.998,22 3.998,22 3.998,20 5.999,20 5.999,18 
		5.999,18 8,18 8,16 10,16 10,14 12,14 12,12 10,12 	"/>
	<rect x="1.998" fill="#040000" width="2" height="2"/>
	<rect x="-0.003" y="2.002" fill="#040000" width="2" height="2"/>
	<rect x="-0.003" y="18" fill="#040000" width="2" height="2"/>
</g>
</svg>
