<?xml version="1.0" encoding="utf-8"?>
<!-- Generator: Adobe Illustrator 16.0.0, SVG Export Plug-In . SVG Version: 6.00 Build 0)  -->
<!DOCTYPE svg PUBLIC "-//W3C//DTD SVG 1.1//EN" "http://www.w3.org/Graphics/SVG/1.1/DTD/svg11.dtd">
<svg version="1.1" id="레이어_1" xmlns="http://www.w3.org/2000/svg" xmlns:xlink="http://www.w3.org/1999/xlink" x="0px"
	 y="0px" width="11px" height="19px" viewBox="0 0 11 19" enable-background="new 0 0 11 19" xml:space="preserve">
<polygon fill="#040000" points="9.999,8.999 9.999,7.999 8.999,7.999 8.999,6.999 7.999,6.999 7.999,5.999 6.999,5.999 6.999,4.999 
	5.999,4.999 5.999,3.999 4.999,3.999 4.999,2.999 3.999,2.999 3.999,1.999 2.999,1.999 2.999,0.999 1.999,0.999 1.999,0 0.999,0 
	0.999,0.999 0,0.999 0,1.999 0.999,1.999 0.999,2.999 1.999,2.999 1.999,3.999 2.999,3.999 2.999,4.999 3.999,4.999 3.999,5.999 
	4.999,5.999 4.999,6.999 5.999,6.999 5.999,7.999 6.999,7.999 6.999,8.999 7.998,8.999 7.998,9.999 6.999,9.999 6.998,9.999 
	6.998,10.999 5.999,10.999 5.999,11.999 4.999,11.999 4.999,12.999 3.999,12.999 3.999,13.999 2.999,13.999 2.999,14.999 
	1.999,14.999 1.999,15.999 0.999,15.999 0.999,16.999 0,16.999 0,17.999 0.999,17.999 0.999,18.998 1.999,18.998 1.999,17.999 
	2.999,17.999 2.999,16.999 3.999,16.999 3.999,15.999 4.999,15.999 4.999,14.999 5.999,14.999 5.999,13.999 6.998,13.999 
	6.998,12.999 7.998,12.999 7.998,11.999 8.998,11.999 8.998,10.999 8.999,10.999 9.999,10.999 9.999,9.999 10.999,9.999 
	10.999,8.999 "/>
</svg>
