<?xml version="1.0" encoding="utf-8"?>
<!-- Generator: Adobe Illustrator 16.0.0, SVG Export Plug-In . SVG Version: 6.00 Build 0)  -->
<!DOCTYPE svg PUBLIC "-//W3C//DTD SVG 1.1//EN" "http://www.w3.org/Graphics/SVG/1.1/DTD/svg11.dtd">
<svg version="1.1" id="레이어_1" xmlns="http://www.w3.org/2000/svg" xmlns:xlink="http://www.w3.org/1999/xlink" x="0px"
	 y="0px" width="11px" height="19px" viewBox="0 0 11 19" enable-background="new 0 0 11 19" xml:space="preserve">
<polygon fill="#040000" points="1,9.999 1,10.999 2,10.999 2,11.999 3,11.999 3,12.999 4,12.999 4,13.999 5,13.999 5,14.999 
	6,14.999 6,15.999 6.999,15.999 6.999,16.999 7.999,16.999 7.999,17.999 8.999,17.999 8.999,18.998 9.999,18.998 9.999,17.999 
	10.998,17.999 10.998,16.999 9.999,16.999 9.999,15.999 8.999,15.999 8.999,14.999 7.999,14.999 7.999,13.999 6.999,13.999 
	6.999,12.999 6,12.999 6,11.999 5,11.999 5,10.999 4,10.999 4,9.999 3,9.999 3,8.999 4,8.999 4,8.999 4,7.999 5,7.999 5,6.999 
	6,6.999 6,5.999 7,5.999 7,4.999 8,4.999 8,3.999 9,3.999 9,2.999 10,2.999 10,1.999 10.999,1.999 10.999,0.999 10,0.999 10,0 9,0 
	9,0.999 8,0.999 8,1.999 7,1.999 7,2.999 6,2.999 6,3.999 5,3.999 5,4.999 4,4.999 4,5.999 3,5.999 3,6.999 2,6.999 2,7.999 
	2,7.999 1,7.999 1,8.999 0,8.999 0,9.999 "/>
</svg>
