<?xml version="1.0" encoding="utf-8"?>
<!-- Generator: Adobe Illustrator 16.0.0, SVG Export Plug-In . SVG Version: 6.00 Build 0)  -->
<!DOCTYPE svg PUBLIC "-//W3C//DTD SVG 1.1//EN" "http://www.w3.org/Graphics/SVG/1.1/DTD/svg11.dtd">
<svg version="1.1" id="레이어_1" xmlns="http://www.w3.org/2000/svg" xmlns:xlink="http://www.w3.org/1999/xlink" x="0px"
	 y="0px" width="16px" height="16px" viewBox="0 0 16 16" enable-background="new 0 0 16 16" xml:space="preserve">
<g>
	<path fill="#1428a0" d="M11.646,12.444l-0.473-0.475l0.002-0.005L8.725,9.521C8.6,9.36,8.338,9.09,7.995,9.09
		c-0.229,0-0.486,0.129-0.764,0.385l-2.374,2.397l-0.469,0.487l0,0L0.798,16h14.403L11.646,12.444L11.646,12.444z"/>
	<polygon fill="#1428a0" points="0,8.013 0,15.832 3.915,11.878 	"/>
	<polygon fill="#1428a0" points="12.115,11.959 16,15.828 16,8.039 	"/>
</g>
<polygon fill="#1428a0" points="2,11 2,1 14,1 14,11 15,11 15,0 1,0 1,11 "/>
<rect x="3" y="3" fill="#1428a0" width="10" height="1"/>
<rect x="3" y="5" fill="#1428a0" width="10" height="1"/>
<rect x="3" y="7" fill="#1428a0" width="10" height="1"/>
</svg>
