<?xml version="1.0" encoding="utf-8"?>
<!-- Generator: Adobe Illustrator 16.0.0, SVG Export Plug-In . SVG Version: 6.00 Build 0)  -->
<!DOCTYPE svg PUBLIC "-//W3C//DTD SVG 1.1//EN" "http://www.w3.org/Graphics/SVG/1.1/DTD/svg11.dtd">
<svg version="1.1" id="cart" xmlns="http://www.w3.org/2000/svg" xmlns:xlink="http://www.w3.org/1999/xlink" viewBox="0 0 22 18">
<g>
	<path d="M20.53,16.194c0,0.993-0.805,1.798-1.798,1.798s-1.798-0.805-1.798-1.798s0.805-1.799,1.798-1.799
		S20.53,15.201,20.53,16.194"/>
	<path d="M7.583,16.194c0,0.993-0.805,1.798-1.798,1.798s-1.798-0.805-1.798-1.798s0.805-1.799,1.798-1.799
		S7.583,15.201,7.583,16.194"/>
	<path d="M18.79,2.536v2.525v2.458v2.592L5.802,10.109V7.517V5.058V2.533V2.509c0-1.381-1.12-2.501-2.501-2.501
		H3.277H0.75v2.525h2.527v7.577c0,1.395,1.131,2.525,2.525,2.525l12.988,0.002c1.395,0,2.525-1.13,2.525-2.525V2.536H18.79z"/>
</g>
</svg>
