<?xml version="1.0" encoding="utf-8"?>
<!-- Generator: Adobe Illustrator 16.0.0, SVG Export Plug-In . SVG Version: 6.00 Build 0)  -->
<!DOCTYPE svg PUBLIC "-//W3C//DTD SVG 1.1//EN" "http://www.w3.org/Graphics/SVG/1.1/DTD/svg11.dtd">
<svg version="1.1" id="레이어_1" xmlns="http://www.w3.org/2000/svg" xmlns:xlink="http://www.w3.org/1999/xlink" x="0px"
	 y="0px" width="24px" height="24px" viewBox="0 0 24 24" enable-background="new 0 0 24 24" xml:space="preserve">
<path fill="#363636" d="M12,0C5.373,0,0,5.373,0,12c0,6.628,5.373,12,12,12c6.628,0,12-5.372,12-12C24,5.373,18.628,0,12,0z
	 M19.502,8.445c-0.019,0.312-0.799,1.594-1.08,1.961s-0.998,1.377-1.182,1.641c-0.184,0.264-0.186,0.515-0.186,0.515
	c0.016,0.063-0.055,0.172,0.484,0.539s1.522,1.522,1.522,1.522c0.231,0.268,0.44,0.186,0.44,0.687c0,0.909-0.939,0.689-0.939,0.689
	s-1.398,0-1.669,0c-0.27,0-0.383,0.179-0.44,0.137c-0.058-0.041-1.191-1-1.191-1c-0.714-0.779-1.271-0.701-1.271-0.701
	c-0.565-0.012-0.97,0.461-0.97,1.325c0,0.636-0.521,0.724-0.521,0.724c-0.354,0-1.297,0.141-2.688-0.586
	c-2.68-1.516-4.306-5.069-4.371-5.211S4.776,9.168,4.544,8.602C4.312,8.035,4.938,8,4.938,8h1.994c0.542,0,1.625,2.163,1.891,2.617
	C9.027,10.968,9.409,12,9.77,12c0.518,0,0.23-1.813,0.23-1.813s0-0.668,0-1.2C10,8.455,9.938,9,9.938,9H9.504
	c0.552-1,1.933-1,1.933-1h1.5c0.558,0,0.602,0.569,0.602,0.569s-0.044,1.894-0.034,2.603c0.021,0.615,0.344,0.896,0.5,0.896
	s0.281-0.021,0.539-0.502c0.722-1.784,1.951-3.5,1.951-3.5s0.122-0.278,0.63-0.234c1.778,0.127,2.227,0.399,2.227,0.399
	S19.513,8.261,19.502,8.445z"/>
</svg>
