<?xml version="1.0" encoding="utf-8"?>
<!-- Generator: Adobe Illustrator 16.0.0, SVG Export Plug-In . SVG Version: 6.00 Build 0)  -->
<!DOCTYPE svg PUBLIC "-//W3C//DTD SVG 1.1//EN" "http://www.w3.org/Graphics/SVG/1.1/DTD/svg11.dtd">
<svg version="1.1" id="레이어_1" xmlns="http://www.w3.org/2000/svg" xmlns:xlink="http://www.w3.org/1999/xlink" x="0px"
	 y="0px" width="24px" height="24px" viewBox="0 0 24 24" enable-background="new 0 0 24 24" xml:space="preserve">
<g>
	<path fill="#363636" d="M13,9.379C13,8.933,12.369,9,11.979,9H9.621C9.23,9,9,8.933,9,9.379v0.098C9,9.924,9.23,10,9.621,10h2.358
		C12.369,10,13,9.924,13,9.478V9.379z"/>
	<path fill="#363636" d="M15,14.18c0-0.446-0.23-1.18-0.621-1.18H9.621C9.23,13,9,13.733,9,14.18v0.098C9,14.724,9.23,15,9.621,15
		h4.758C14.77,15,15,14.724,15,14.277V14.18z"/>
	<path fill="#363636" d="M12,0C5.373,0,0,5.373,0,12c0,6.628,5.373,12,12,12c6.628,0,12-5.372,12-12C24,5.373,18.628,0,12,0z
		 M18,13.23c0,4.655-3.747,4.77-3.747,4.77h-3.779C6.085,18,6,14.125,6,14.125s0-0.048,0-4.077C6,6.035,9.565,6,9.565,6h2.5
		C15.522,6,16,9,16,9v0.358C16,10.221,16.503,10,16.503,10h0.696C17.967,10,18,10.938,18,10.938V13.23z"/>
</g>
</svg>
