<?xml version="1.0" encoding="utf-8"?>
<!-- Generator: Adobe Illustrator 16.0.0, SVG Export Plug-In . SVG Version: 6.00 Build 0)  -->
<!DOCTYPE svg PUBLIC "-//W3C//DTD SVG 1.1//EN" "http://www.w3.org/Graphics/SVG/1.1/DTD/svg11.dtd">
<svg version="1.1" xmlns="http://www.w3.org/2000/svg" xmlns:xlink="http://www.w3.org/1999/xlink" viewBox="0 0 22 14">
<g>
	<polygon fill="#040000" points="9.998,8.001 7.999,8.001 7.999,8 7.999,8 9.998,8 9.998,6 7.999,6 7.999,6 5.999,6 5.999,6 
		5.999,5.999 7.999,5.999 7.999,3.999 5.999,3.999 5.999,1.999 3.999,1.999 1.999,1.999 -0.001,1.999 -0.001,3.999 1.999,3.999 
		1.999,5.999 3.999,5.999 3.999,6 3.999,8 5.999,8 5.999,10.001 7.999,10.001 7.999,12.001 9.998,12.001 9.998,10.001 	"/>
	<polygon fill="#040000" points="15.996,1.999 15.996,3.999 13.997,3.999 13.997,5.999 15.996,5.999 15.996,6 15.996,6 13.997,6 
		13.997,6 11.998,6 11.998,8 13.997,8 13.997,8 13.997,8.001 11.999,8.001 11.998,8.001 10,8.001 10,10.001 10,12.001 9.998,12.001 
		9.998,14.001 11.998,14.001 11.998,12.001 11.999,12.001 13.997,12.001 13.997,10.001 15.996,10.001 15.996,8 17.996,8 17.996,6 
		17.996,5.999 19.995,5.999 19.995,3.999 19.995,1.999 17.996,1.999 	"/>
	<rect x="19.998" y="1.999" fill="#040000" width="2" height="2"/>
	<rect x="17.996" y="-0.003" fill="#040000" width="1.999" height="2"/>
	<rect x="1.999" y="-0.002" fill="#040000" width="2" height="1.999"/>
</g>
</svg>
