<?xml version="1.0" encoding="utf-8"?>
<!-- Generator: Adobe Illustrator 16.0.0, SVG Export Plug-In . SVG Version: 6.00 Build 0)  -->
<!DOCTYPE svg PUBLIC "-//W3C//DTD SVG 1.1//EN" "http://www.w3.org/Graphics/SVG/1.1/DTD/svg11.dtd">
<svg version="1.1" xmlns="http://www.w3.org/2000/svg" xmlns:xlink="http://www.w3.org/1999/xlink" viewBox="0 0 22 14">
<g>
	<polygon fill="#fff" points="9.999,-0.001 9.999,1.999 9.998,1.999 8,1.999 8,3.999 6,3.999 6,5.999 4,5.999 4,8 4,8 2.001,8 
		2.001,10 2.001,12 4,12 6,12 6,10 8,10 8,8 6,8 6,8 6,7.999 8,7.999 8,8 9.999,8 9.999,6 8,6 8,5.999 8,5.999 9.998,5.999 
		9.999,5.999 11.997,5.999 11.997,3.999 11.997,1.999 11.999,1.999 11.999,-0.001 	"/>
	<polygon fill="#fff" points="19.998,10 19.998,8 17.998,8 17.998,8 17.998,5.999 15.998,5.999 15.998,3.999 13.998,3.999 
		13.998,1.999 11.999,1.999 11.999,3.999 11.999,5.999 13.998,5.999 13.998,5.999 13.998,6 11.999,6 11.999,8 13.998,8 
		13.998,7.999 15.998,7.999 15.998,8 15.998,8 13.998,8 13.998,10 15.998,10 15.998,12 17.998,12 19.998,12 21.998,12 21.998,10 	
		"/>
	<rect x="-0.001" y="10" fill="#fff" width="2" height="2"/>
	<rect x="2.001" y="12.002" fill="#fff" width="2" height="2"/>
	<rect x="17.998" y="12.002" fill="#fff" width="2" height="1.999"/>
</g>
</svg>
