<?xml version="1.0" encoding="utf-8"?>
<!-- Generator: Adobe Illustrator 16.0.0, SVG Export Plug-In . SVG Version: 6.00 Build 0)  -->
<!DOCTYPE svg PUBLIC "-//W3C//DTD SVG 1.1//EN" "http://www.w3.org/Graphics/SVG/1.1/DTD/svg11.dtd">
<svg version="1.1" id="레이어_1" xmlns="http://www.w3.org/2000/svg" xmlns:xlink="http://www.w3.org/1999/xlink" x="0px"
	 y="0px" width="14px" height="22px" viewBox="0 0 14 22" enable-background="new 0 0 14 22" xml:space="preserve">
<g>
	<polygon fill="#A6A6A6" points="1.997,12 1.997,12.001 1.997,13.999 3.997,13.999 3.997,15.998 5.998,15.998 5.998,17.998 
		7.998,17.998 7.999,17.998 7.999,19.998 9.999,19.998 11.999,19.998 11.999,17.998 11.999,15.998 9.999,15.998 9.999,17.998 
		9.998,17.998 9.998,15.998 9.998,15.998 9.998,13.999 7.999,13.999 7.999,15.998 7.998,15.998 7.998,15.998 7.998,13.999 
		7.998,13.999 7.998,12 5.998,12 5.998,13.999 5.998,13.999 5.997,13.999 5.997,12.001 5.997,12 5.997,10.001 3.997,10.001 
		1.997,10.001 1.997,10 -0.003,10 -0.003,12 	"/>
	<polygon fill="#A6A6A6" points="5.997,10 5.997,8 5.998,8 5.998,8 5.998,10 7.998,10 7.998,8 7.998,8 7.998,6 7.998,6 7.999,6 
		7.999,8 9.998,8 9.998,6 9.998,6 9.998,4 9.999,4 9.999,6 11.999,6 11.999,4 11.999,2 11.999,0 9.999,0 9.999,2 7.999,2 7.999,4 
		7.998,4 5.998,4 5.998,6 3.997,6 3.997,8 1.997,8 1.997,10 3.997,10 	"/>
	<rect x="9.999" y="20" fill="#A6A6A6" width="2" height="2"/>
	<rect x="12" y="17.998" fill="#A6A6A6" width="2" height="2"/>
	<rect x="12" y="2" fill="#A6A6A6" width="2" height="2"/>
</g>
</svg>
